<svg width="60" height="60" viewBox="0 0 60 60" fill="none" xmlns="http://www.w3.org/2000/svg">
<g clip-path="url(#clip0_1_2868)">
<path d="M29.9995 60.0002C46.568 60.0002 59.9995 46.5688 59.9995 30.0002C59.9995 13.4317 46.568 0.000244141 29.9995 0.000244141C13.431 0.000244141 -0.000488281 13.4317 -0.000488281 30.0002C-0.000488281 46.5688 13.431 60.0002 29.9995 60.0002Z" fill="#C12829"/>
<path d="M20.3125 7.5C18.9375 7.5 17.8125 8.625 17.8125 10V50C17.8125 51.375 18.9375 52.5 20.3125 52.5H39.0625C40.4375 52.5 41.5625 51.375 41.5625 50V26.24C41.6443 26.2413 41.7256 26.2263 41.8015 26.1959C41.8774 26.1654 41.9465 26.1201 42.0047 26.0626C42.063 26.0051 42.1091 25.9365 42.1405 25.861C42.1719 25.7854 42.1878 25.7043 42.1875 25.6225V24.3825C42.1887 24.2997 42.1733 24.2176 42.1424 24.1408C42.1115 24.0641 42.0657 23.9942 42.0075 23.9353C41.9493 23.8765 41.88 23.8298 41.8036 23.7979C41.7272 23.7661 41.6453 23.7498 41.5625 23.75V23.735C41.6443 23.7363 41.7256 23.7213 41.8015 23.6909C41.8774 23.6604 41.9465 23.6151 42.0047 23.5576C42.063 23.5001 42.1091 23.4315 42.1405 23.356C42.1719 23.2804 42.1878 23.1993 42.1875 23.1175V21.8775C42.1885 21.7948 42.1731 21.7127 42.1421 21.636C42.1111 21.5593 42.0653 21.4895 42.0071 21.4307C41.949 21.3719 41.8797 21.3252 41.8034 21.2933C41.7271 21.2614 41.6452 21.245 41.5625 21.245V19.5388C41.7272 19.5342 41.8835 19.465 41.9976 19.3462C42.1117 19.2274 42.1745 19.0685 42.1725 18.9038V18.135C42.1752 17.9701 42.1126 17.8108 41.9983 17.6918C41.884 17.5729 41.7274 17.5039 41.5625 17.5V10C41.5625 8.625 40.4375 7.5 39.0625 7.5H20.3125ZM20.3125 8.75H39.0625C39.7663 8.75 40.3125 9.29625 40.3125 10V15H19.0625V10C19.0625 9.29625 19.6088 8.75 20.3125 8.75ZM27.1875 11.25C27.0217 11.25 26.8628 11.3158 26.7456 11.4331C26.6283 11.5503 26.5625 11.7092 26.5625 11.875C26.5625 12.0408 26.6283 12.1997 26.7456 12.3169C26.8628 12.4342 27.0217 12.5 27.1875 12.5C27.3533 12.5 27.5122 12.4342 27.6294 12.3169C27.7467 12.1997 27.8125 12.0408 27.8125 11.875C27.8125 11.7092 27.7467 11.5503 27.6294 11.4331C27.5122 11.3158 27.3533 11.25 27.1875 11.25ZM29.675 11.25C28.83 11.2375 28.83 12.5125 29.675 12.5H32.1975C33.0425 12.5125 33.0425 11.2375 32.1975 11.25H29.675ZM19.0625 16.25H40.3125V43.75H19.0625V16.25ZM30.3075 22.475L25.02 26.23H21.5325V33.7212H25.01L30.3075 37.5212V22.475ZM33.8425 24.1875L33.3688 25.3438C35.3975 26.175 36.59 27.8412 36.555 29.6025C36.52 31.3625 35.2575 33.0025 33.1963 33.7787L33.635 34.9487C36.09 34.0238 37.7588 31.97 37.805 29.6287C37.8513 27.2875 36.2625 25.1787 33.8425 24.1875ZM29.0575 24.8975V35.085L25.3 32.39V27.5637L29.0575 24.8975ZM33.445 26.5725L32.8875 27.69C33.2391 27.8632 33.5342 28.1327 33.7386 28.4671C33.943 28.8015 34.0481 29.1871 34.0418 29.579C34.0355 29.9709 33.9181 30.3529 33.7031 30.6806C33.4881 31.0083 33.1845 31.2682 32.8275 31.43L33.345 32.5675C33.916 32.3073 34.4017 31.8907 34.7459 31.366C35.0901 30.8413 35.2788 30.2299 35.29 29.6025C35.3 28.9748 35.1321 28.357 34.8055 27.8208C34.479 27.2845 34.0073 26.8517 33.445 26.5725ZM22.7825 27.48H24.0325V32.4712H22.7825V27.48ZM19.0625 45H40.3125V50C40.3125 50.7038 39.765 51.25 39.0625 51.25H20.3125C19.6088 51.25 19.0625 50.7038 19.0625 50V45ZM29.7625 46.875C29.035 46.875 28.43 47.4775 28.43 48.205C28.43 48.9338 29.035 49.5387 29.7625 49.5387C30.4913 49.5387 31.0963 48.9338 31.0963 48.205C31.0963 47.4775 30.4913 46.875 29.7625 46.875Z" fill="#C12829"/>
</g>
<path d="M30.9913 40.3245V19L24.3331 25.159H17V34.1585H24.3331L30.9913 40.3245Z" fill="white"/>
<path d="M34.9497 36.6614C36.391 34.7068 37.2558 32.2812 37.2558 29.6587C37.2558 27.0292 36.391 24.6106 34.9497 22.656L33.5154 23.7317C34.7387 25.391 35.47 27.437 35.47 29.6587C35.47 31.8804 34.7387 33.9264 33.5154 35.5857L34.9497 36.6614Z" fill="white"/>
<path d="M39.6252 39.8956C41.7345 37.0341 43 33.4976 43 29.6588C43 25.8199 41.7345 22.2834 39.6252 19.4219L38.1909 20.4976C40.0822 23.0568 41.2142 26.2207 41.2142 29.6588C41.2142 33.0968 40.0822 36.2537 38.1909 38.8199L39.6252 39.8956Z" fill="white"/>
<defs>
<clipPath id="clip0_1_2868">
<rect width="60" height="60" fill="white"/>
</clipPath>
</defs>
</svg>
